<svg version="1.2" xmlns="http://www.w3.org/2000/svg" viewBox="0 0 512 512" width="512" height="512">
	<style>
		.s0 { fill: none;stroke: #000000;stroke-linecap: round;stroke-linejoin: round;stroke-width: 23.6 } 
	</style>
	<g>
		<path class="s0" d="m252.17 217.61l12.95-12.96c18.93-18.92 29.57-44.79 28.6-71.54-0.46-12.7 2.15-27.61 11.96-42.3 16.07-21.64 42.02-28.56 69.8-22.6 12.63 2.71 21.38 5.37 27.18 7.47l-50.75 50.75 16.82 16.82-0.05 0.07 0.07-0.05 16.82 16.82 50.75-50.75c2.1 5.8 4.76 14.55 7.47 27.18 5.96 27.78-0.96 53.73-22.6 69.8-14.69 9.81-29.6 12.42-42.3 11.96-26.75-0.97-52.62 9.67-71.54 28.6l-10.76 10.75"/>
		<path class="s0" d="m216.08 253.69l-80.76 80.77c-7.53 7.53-17.33 12.24-27.85 13.9-9.88 1.57-19.36 6.14-26.96 13.74-19.13 19.13-19.13 50.25 0 69.39 19.13 19.13 50.26 19.13 69.39 0 7.6-7.6 12.17-17.08 13.73-26.96 1.67-10.52 6.38-20.32 13.91-27.85l80.15-80.15"/>
		<g>
			<path fill-rule="evenodd" class="s0" d="m115.74 397.13"/>
			<path class="s0" d="m326.49 295.77l-30.72 30.72c-9.28 9.27-24.32 9.27-33.6 0l-0.12-0.12c-9.27-9.28-9.27-24.32 0-33.6l30.72-30.72c9.28-9.27 24.32-9.27 33.6 0l0.12 0.12c9.27 9.28 9.27 24.32 0 33.6z"/>
			<path class="s0" d="m287.58 334.67c0.12 11.79 4.66 23.55 13.66 32.54l64.96 64.96c18.21 18.22 47.75 18.22 65.97 0 18.22-18.22 18.22-47.76 0-65.97l-64.96-64.96c-8.99-9-20.75-13.54-32.54-13.66z"/>
			<path fill-rule="evenodd" class="s0" d="m126.81 161.37l34.56-34.56 133.32 133.32-34.56 34.56z"/>
			<path fill-rule="evenodd" class="s0" d="m148.55 93.87l-50.06-27.7-32.32 32.32 27.7 50.06 32.94 12.82 34.56-34.56z"/>
		</g>
	</g>
	<g>
	</g>
	<g>
	</g>
	<g>
	</g>
	<g>
	</g>
	<g>
	</g>
	<g>
	</g>
	<g>
	</g>
	<g>
	</g>
	<g>
	</g>
	<g>
	</g>
	<g>
	</g>
	<g>
	</g>
	<g>
	</g>
	<g>
	</g>
	<g>
	</g>
</svg>