<svg version="1.2" xmlns="http://www.w3.org/2000/svg" viewBox="0 0 512 512" width="512" height="512">
	<defs>
		<clipPath clipPathUnits="userSpaceOnUse" id="cp1">
			<path d="m473.81 37.12v436.69h-436.69v-436.69z"/>
		</clipPath>
	</defs>
	<style>
		.s0 { fill: none;stroke: #000000;stroke-linecap: round;stroke-linejoin: round;stroke-width: 25.6 } 
	</style>
	<g id="g1443">
		<g id="g1445">
			<g id="Clip-Path: g1447" clip-path="url(#cp1)">
				<g id="g1447">
					<g id="g1453">
						<path id="path1455" class="s0" d="m222.63 210.44h-158.51l-4.07-6.73c-17.96-29.69-11.53-68.05 15.13-90.26 39.88-33.24 90.14-51.43 142.05-51.43 53.07 0 104.68 17.31 147.02 49.3l37.92 28.66c15.67 11.84 33.05 21.24 51.54 27.88l7.31 2.62-122.38 39.96z"/>
					</g>
					<g id="g1457">
						<path id="path1459" class="s0" d="m148.3 123.5c22.09-10.23 45.34-15.55 68.93-15.55 26.53 0 52.7 6.13 77.53 17.91q4.76 2.26 9.46 4.8"/>
					</g>
					<g id="g1461">
						<path id="path1463" class="s0" d="m64.12 210.44v36.6c0 12.71 4.45 25.02 12.57 34.8 24.03 28.92 67.69 31.02 94.38 4.54l15.29-15.17c16.53-16.39 42.01-19.64 62.13-7.91 9.92 5.78 22.46 4.36 30.85-3.49l52.74-49.37"/>
					</g>
					<g id="g1465">
						<path id="path1467" class="s0" d="m49.92 166.53h47.44"/>
					</g>
					<path id="path1469" fill-rule="evenodd" class="s0" d="m281.05 385.26v63.66h-51.17v-63.66z"/>
					<g id="g1471">
						<path id="path1473" class="s0" d="m255.47 385.26v-119.16"/>
					</g>
					<g id="g1475">
						<path id="path1477" class="s0" d="m124.14 304.93c0 0 11.43 92.25 105.74 112.16"/>
					</g>
				</g>
			</g>
		</g>
	</g>
</svg>